<svg width="65" height="59" viewBox="0 0 65 59" fill="none" xmlns="http://www.w3.org/2000/svg">
<path d="M30.8027 57.1511V32.9578H13.8593V57.1511H0.5V0.700012H13.8593V22.531H30.8027V0.700012H44.162V57.1511H30.8027Z" fill="black"/>
<path d="M57.1687 43.7918C59.178 43.7918 60.8887 44.525 62.3006 45.9912C63.7669 47.4032 64.5 49.1138 64.5 51.1231C64.5 53.1868 63.7669 54.9517 62.3006 56.418C60.8887 57.8299 59.178 58.5359 57.1687 58.5359C55.1051 58.5359 53.3401 57.8299 51.8739 56.418C50.4619 54.9517 49.7559 53.1868 49.7559 51.1231C49.7559 49.1138 50.4619 47.4032 51.8739 45.9912C53.3401 44.525 55.1051 43.7918 57.1687 43.7918Z" fill="url(#paint0_linear_201_8)"/>
<defs>
<linearGradient id="paint0_linear_201_8" x1="32.5" y1="0.700012" x2="32.5" y2="58.5359" gradientUnits="userSpaceOnUse">
<stop stop-color="#9BFF6B"/>
<stop offset="1" stop-color="#29C74B"/>
</linearGradient>
</defs>
</svg>
