<svg width="135" height="32" viewBox="0 0 135 32" fill="none" xmlns="http://www.w3.org/2000/svg">
<path d="M23.6205 3.84611V31.1185H16.9772V19.891H6.64327V31.1185H0V3.84611H6.64327V14.5297H16.9772V3.84611H23.6205Z" fill="white"/>
<path d="M48.8512 19.9298C48.8512 20.5514 48.8123 21.1989 48.7346 21.8723H33.6998C33.8034 23.2191 34.2308 24.2551 34.9819 24.9803C35.7589 25.6795 36.7042 26.0292 37.8179 26.0292C39.4755 26.0292 40.628 25.3299 41.2755 23.9313H48.3461C47.9835 25.3558 47.3231 26.6378 46.3648 27.7774C45.4324 28.917 44.254 29.8105 42.8295 30.458C41.405 31.1055 39.8122 31.4293 38.051 31.4293C35.9272 31.4293 34.0365 30.976 32.379 30.0695C30.7214 29.1631 29.4264 27.8681 28.494 26.1846C27.5616 24.5011 27.0954 22.5327 27.0954 20.2795C27.0954 18.0262 27.5487 16.0578 28.4552 14.3743C29.3875 12.6908 30.6825 11.3959 32.3401 10.4894C33.9977 9.58289 35.9013 9.12964 38.051 9.12964C40.1489 9.12964 42.0136 9.56994 43.6453 10.4505C45.277 11.3311 46.5461 12.5873 47.4526 14.2189C48.385 15.8506 48.8512 17.7542 48.8512 19.9298ZM42.0525 18.1816C42.0525 17.042 41.664 16.1355 40.887 15.4621C40.11 14.7887 39.1388 14.452 37.9733 14.452C36.8596 14.452 35.9143 14.7758 35.1373 15.4233C34.3862 16.0708 33.92 16.9902 33.7387 18.1816H42.0525Z" fill="white"/>
<path d="M58.9991 13.0534C59.7761 11.8621 60.7473 10.9297 61.9128 10.2563C63.0783 9.55699 64.3733 9.20734 65.7978 9.20734V16.2391H63.9718C62.3142 16.2391 61.0711 16.6017 60.2423 17.3269C59.4135 18.0262 58.9991 19.2694 58.9991 21.0564V31.1185H52.3558V9.44044H58.9991V13.0534Z" fill="white"/>
<path d="M72.3142 7.18716C71.1487 7.18716 70.1904 6.85047 69.4393 6.17708C68.7141 5.47779 68.3515 4.6231 68.3515 3.61301C68.3515 2.57702 68.7141 1.72233 69.4393 1.04894C70.1904 0.349646 71.1487 0 72.3142 0C73.4537 0 74.3861 0.349646 75.1113 1.04894C75.8624 1.72233 76.238 2.57702 76.238 3.61301C76.238 4.6231 75.8624 5.47779 75.1113 6.17708C74.3861 6.85047 73.4537 7.18716 72.3142 7.18716ZM75.6164 9.44044V31.1185H68.9731V9.44044H75.6164Z" fill="white"/>
<path d="M79.1098 20.2795C79.1098 18.0262 79.563 16.0578 80.4695 14.3743C81.4019 12.6908 82.6839 11.3959 84.3156 10.4894C85.9732 9.58289 87.8639 9.12964 89.9877 9.12964C92.7071 9.12964 94.9734 9.84188 96.7863 11.2664C98.6252 12.6908 99.8295 14.6981 100.399 17.288H93.3287C92.733 15.6305 91.5805 14.8017 89.8711 14.8017C88.6538 14.8017 87.6826 15.2808 86.9574 16.2391C86.2322 17.1715 85.8696 18.5183 85.8696 20.2795C85.8696 22.0406 86.2322 23.4004 86.9574 24.3587C87.6826 25.291 88.6538 25.7572 89.8711 25.7572C91.5805 25.7572 92.733 24.9285 93.3287 23.2709H100.399C99.8295 25.809 98.6252 27.8033 96.7863 29.2537C94.9475 30.7041 92.6812 31.4293 89.9877 31.4293C87.8639 31.4293 85.9732 30.976 84.3156 30.0695C82.6839 29.1631 81.4019 27.8681 80.4695 26.1846C79.563 24.5011 79.1098 22.5327 79.1098 20.2795Z" fill="white"/>
<path d="M117.201 31.1185L110.596 22.0277V31.1185H103.953V2.36982H110.596V18.2593L117.162 9.44044H125.359L116.346 20.3183L125.437 31.1185H117.201Z" fill="white"/>
<path d="M131.076 31.4293C129.911 31.4293 128.952 31.0926 128.201 30.4192C127.476 29.7199 127.114 28.8652 127.114 27.8551C127.114 26.8191 127.476 25.9515 128.201 25.2522C128.952 24.5529 129.911 24.2033 131.076 24.2033C132.216 24.2033 133.148 24.5529 133.873 25.2522C134.624 25.9515 135 26.8191 135 27.8551C135 28.8652 134.624 29.7199 133.873 30.4192C133.148 31.0926 132.216 31.4293 131.076 31.4293Z" fill="url(#paint0_linear_202_178)"/>
<defs>
<linearGradient id="paint0_linear_202_178" x1="67.5" y1="0" x2="67.5" y2="31.4293" gradientUnits="userSpaceOnUse">
<stop stop-color="#29C74B"/>
<stop offset="0.572917" stop-color="#75EA3D"/>
</linearGradient>
</defs>
</svg>
