<svg width="136" height="33" viewBox="0 0 136 33" fill="none" xmlns="http://www.w3.org/2000/svg">
<path d="M23.7904 4.81113V32.0835H17.1472V20.856H6.81319V32.0835H0.169922V4.81113H6.81319V15.4948H17.1472V4.81113H23.7904Z" fill="black"/>
<path d="M49.0211 20.8948C49.0211 21.5164 48.9822 22.1639 48.9045 22.8373H33.8698C33.9734 24.1841 34.4007 25.2201 35.1518 25.9453C35.9288 26.6446 36.8741 26.9942 37.9878 26.9942C39.6454 26.9942 40.7979 26.2949 41.4454 24.8963H48.516C48.1534 26.3208 47.493 27.6029 46.5347 28.7424C45.6023 29.882 44.4239 30.7756 42.9994 31.4231C41.5749 32.0706 39.9821 32.3943 38.2209 32.3943C36.0971 32.3943 34.2065 31.9411 32.5489 31.0346C30.8913 30.1281 29.5963 28.8331 28.6639 27.1496C27.7315 25.4661 27.2653 23.4978 27.2653 21.2445C27.2653 18.9912 27.7186 17.0228 28.6251 15.3394C29.5575 13.6559 30.8525 12.3609 32.51 11.4544C34.1676 10.5479 36.0712 10.0947 38.2209 10.0947C40.3188 10.0947 42.1836 10.535 43.8152 11.4156C45.4469 12.2961 46.716 13.5523 47.6225 15.184C48.5549 16.8156 49.0211 18.7193 49.0211 20.8948ZM42.2224 19.1466C42.2224 18.007 41.8339 17.1005 41.0569 16.4271C40.2799 15.7538 39.3087 15.4171 38.1432 15.4171C37.0295 15.4171 36.0842 15.7408 35.3072 16.3883C34.5561 17.0358 34.0899 17.9552 33.9086 19.1466H42.2224Z" fill="black"/>
<path d="M59.169 14.0185C59.946 12.8271 60.9172 11.8947 62.0827 11.2213C63.2482 10.522 64.5432 10.1724 65.9677 10.1724V17.2041H64.1417C62.4842 17.2041 61.241 17.5667 60.4122 18.2919C59.5834 18.9912 59.169 20.2344 59.169 22.0215V32.0835H52.5257V10.4055H59.169V14.0185Z" fill="black"/>
<path d="M72.4841 8.15219C71.3186 8.15219 70.3603 7.8155 69.6092 7.1421C68.884 6.44281 68.5214 5.58812 68.5214 4.57804C68.5214 3.54205 68.884 2.68736 69.6092 2.01396C70.3603 1.31467 71.3186 0.965027 72.4841 0.965027C73.6237 0.965027 74.5561 1.31467 75.2812 2.01396C76.0323 2.68736 76.4079 3.54205 76.4079 4.57804C76.4079 5.58812 76.0323 6.44281 75.2812 7.1421C74.5561 7.8155 73.6237 8.15219 72.4841 8.15219ZM75.7863 10.4055V32.0835H69.143V10.4055H75.7863Z" fill="black"/>
<path d="M79.2797 21.2445C79.2797 18.9912 79.733 17.0228 80.6394 15.3394C81.5718 13.6559 82.8539 12.3609 84.4855 11.4544C86.1431 10.5479 88.0338 10.0947 90.1576 10.0947C92.877 10.0947 95.1433 10.8069 96.9563 12.2314C98.7951 13.6559 99.9995 15.6631 100.569 18.2531H93.4986C92.903 16.5955 91.7504 15.7667 90.041 15.7667C88.8237 15.7667 87.8525 16.2458 87.1273 17.2041C86.4021 18.1365 86.0395 19.4833 86.0395 21.2445C86.0395 23.0057 86.4021 24.3654 87.1273 25.3237C87.8525 26.2561 88.8237 26.7223 90.041 26.7223C91.7504 26.7223 92.903 25.8935 93.4986 24.2359H100.569C99.9995 26.7741 98.7951 28.7683 96.9563 30.2187C95.1174 31.6691 92.8511 32.3943 90.1576 32.3943C88.0338 32.3943 86.1431 31.9411 84.4855 31.0346C82.8539 30.1281 81.5718 28.8331 80.6394 27.1496C79.733 25.4661 79.2797 23.4978 79.2797 21.2445Z" fill="black"/>
<path d="M117.37 32.0835L110.766 22.9927V32.0835H104.123V3.33485H110.766V19.2243L117.332 10.4055H125.529L116.516 21.2833L125.607 32.0835H117.37Z" fill="black"/>
<path d="M131.246 32.3943C130.081 32.3943 129.122 32.0576 128.371 31.3842C127.646 30.6849 127.283 29.8302 127.283 28.8201C127.283 27.7842 127.646 26.9165 128.371 26.2172C129.122 25.5179 130.081 25.1683 131.246 25.1683C132.386 25.1683 133.318 25.5179 134.043 26.2172C134.794 26.9165 135.17 27.7842 135.17 28.8201C135.17 29.8302 134.794 30.6849 134.043 31.3842C133.318 32.0576 132.386 32.3943 131.246 32.3943Z" fill="url(#paint0_linear_202_177)"/>
<defs>
<linearGradient id="paint0_linear_202_177" x1="67.6699" y1="0.965027" x2="67.6699" y2="32.3943" gradientUnits="userSpaceOnUse">
<stop stop-color="#29C74B"/>
<stop offset="0.572917" stop-color="#75EA3D"/>
</linearGradient>
</defs>
</svg>
